<svg viewBox="0 0 24 24" fill="none" width="24" height="24" xlmns="http://www.w3.org/2000/svg" class="sc-gEvEer tTyui sc-cWSHoV yozIb sc-cWSHoV yozIb"><g clip-path="url(#clip0_989_1157)"><path d="M7.1792 11.6071C7.1792 11.515 7.19742 11.4237 7.23281 11.3386C7.2682 11.2535 7.32007 11.1763 7.38542 11.1113C7.45078 11.0463 7.52834 10.9948 7.61364 10.9599C7.69895 10.925 7.79031 10.9073 7.88248 10.9078L9.04701 10.911C9.13902 10.911 9.23013 10.9291 9.31512 10.9643C9.40012 10.9996 9.47733 11.0512 9.54236 11.1163C9.60738 11.1814 9.65894 11.2587 9.69408 11.3437C9.72922 11.4287 9.74725 11.5198 9.74715 11.6118V16.0174C9.87837 15.9781 10.0465 15.9372 10.2312 15.894C10.3591 15.8638 10.4731 15.7912 10.5547 15.6881C10.6363 15.585 10.6806 15.4574 10.6807 15.3259V9.86048C10.6807 9.6746 10.7545 9.49633 10.886 9.36489C11.0174 9.23346 11.1957 9.15962 11.3816 9.15962H12.5485C12.6405 9.15962 12.7316 9.17775 12.8166 9.21298C12.9016 9.24821 12.9788 9.29985 13.0438 9.36494C13.1088 9.43003 13.1604 9.5073 13.1955 9.59233C13.2307 9.67736 13.2487 9.76848 13.2486 9.86048V14.9331C13.2486 14.9331 13.5409 14.8152 13.8254 14.6942C13.9311 14.6495 14.0214 14.5745 14.0848 14.4788C14.1482 14.3831 14.1821 14.2708 14.1821 14.156V8.10911C14.1821 8.01711 14.2002 7.92601 14.2355 7.84102C14.2707 7.75603 14.3224 7.67882 14.3875 7.6138C14.4526 7.54878 14.5298 7.49723 14.6149 7.4621C14.6999 7.42696 14.791 7.40893 14.883 7.40903H16.0499C16.2356 7.40903 16.4137 7.48279 16.545 7.61408C16.6763 7.74537 16.7501 7.92344 16.7501 8.10911V13.0882C17.7621 12.3551 18.7876 11.4728 19.6009 10.4121C19.7192 10.258 19.7975 10.0771 19.8287 9.88538C19.86 9.6937 19.8433 9.49726 19.78 9.31362C19.2294 7.70882 18.1966 6.3132 16.8228 5.3175C15.4489 4.32181 13.8011 3.77462 12.1045 3.75072C7.53045 3.69022 3.75004 7.42553 3.75004 12.0016C3.74561 13.4495 4.12346 14.873 4.84542 16.1282C4.94499 16.2998 5.09149 16.4395 5.26771 16.5308C5.44393 16.6221 5.64254 16.6613 5.84023 16.6436C6.06024 16.6247 6.33527 16.5964 6.66216 16.5587C6.80455 16.5427 6.93606 16.4748 7.03157 16.368C7.12709 16.2612 7.17992 16.1229 7.17999 15.9797V11.6071H7.1792ZM7.15406 18.6723C8.42322 19.5956 9.92955 20.1375 11.4961 20.2343C13.0626 20.3311 14.6242 19.9789 15.9974 19.2189C17.3706 18.459 18.4984 17.3229 19.2482 15.9442C19.998 14.5655 20.3387 13.0015 20.2303 11.4358C17.2176 15.9309 11.6535 18.0327 7.15484 18.6723" fill="currentColor"/></g><defs><clipPath id="clip0_989_1157"><rect width="16.5" height="16.5" fill="white" transform="translate(3.75 3.75)"/></clipPath></defs></svg>