<svg viewBox="0 0 25 24" fill="none" width="24" height="24" xlmns="http://www.w3.org/2000/svg" class="sc-gEvEer tTyui sc-cWSHoV yozIb sc-cWSHoV yozIb"><path fill-rule="evenodd" clip-rule="evenodd" d="M5.76156 11.4681C6.35983 10.6489 7.34833 9.45287 8.61566 8.46785C9.88623 7.48031 11.3779 6.75 13 6.75C14.6221 6.75 16.1138 7.48031 17.3843 8.46785C18.6517 9.45287 19.6402 10.6489 20.2384 11.4681C20.4743 11.791 20.4743 12.209 20.2384 12.5319C19.6402 13.3511 18.6517 14.5471 17.3843 15.5321C16.1138 16.5197 14.6221 17.25 13 17.25C11.3779 17.25 9.88623 16.5197 8.61566 15.5321C7.34833 14.5471 6.35983 13.3511 5.76156 12.5319C5.52572 12.209 5.52572 11.791 5.76156 11.4681ZM13 5.25C10.921 5.25 9.11112 6.18297 7.69514 7.28352C6.27592 8.38659 5.1929 9.70343 4.55021 10.5834C3.9295 11.4334 3.9295 12.5666 4.55021 13.4166C5.1929 14.2966 6.27592 15.6134 7.69514 16.7165C9.11112 17.817 10.921 18.75 13 18.75C15.079 18.75 16.8889 17.817 18.3049 16.7165C19.7241 15.6134 20.8071 14.2966 21.4498 13.4166C22.0705 12.5666 22.0705 11.4334 21.4498 10.5834C20.8071 9.70343 19.7241 8.38659 18.3049 7.28351C16.8889 6.18297 15.079 5.25 13 5.25ZM13 14C14.1046 14 15 13.1046 15 12C15 10.8954 14.1046 10 13 10C11.8954 10 11 10.8954 11 12C11 13.1046 11.8954 14 13 14Z" fill="currentColor"/></svg>