<svg viewBox="0 0 134 40" fill="none" xmlns="http://www.w3.org/2000/svg" class="h-8 w-auto inline-block text-gray-900"><path d="m52 30 4.065-9.773L52 10.17h5.085l3.116 8.343h.425L63.8 10.17h5.085l-4.108 10.057L68.884 30h-5.085l-3.173-8.116h-.41L57.084 30H52ZM72.318 30v-3.329a87.36 87.36 0 0 0 1.133-.85c.472-.358 1.001-.774 1.587-1.246a59.162 59.162 0 0 0 1.798-1.544 30.848 30.848 0 0 0 1.8-1.714 23.69 23.69 0 0 0 1.572-1.784 9.837 9.837 0 0 0 1.104-1.743c.274-.566.411-1.095.411-1.586 0-.472-.057-.878-.17-1.218a1.977 1.977 0 0 0-.496-.822 1.903 1.903 0 0 0-.75-.481 2.784 2.784 0 0 0-.963-.156c-.567 0-1.068.17-1.502.51-.425.34-.779.76-1.062 1.26a5.666 5.666 0 0 0-.581 1.46l-4.023-1.729a5.997 5.997 0 0 1 1.43-2.69 6.888 6.888 0 0 1 2.536-1.729A8.47 8.47 0 0 1 79.358 10c1.02 0 1.964.109 2.832.326.87.207 1.625.552 2.267 1.034.651.472 1.157 1.1 1.515 1.884.369.783.553 1.756.553 2.918 0 .717-.17 1.458-.51 2.223-.34.756-.789 1.506-1.346 2.252a22.208 22.208 0 0 1-1.784 2.11 33.116 33.116 0 0 1-1.87 1.814c-.614.538-1.157.987-1.63 1.346-.462.349-.788.585-.976.708h7.875V30H72.318ZM96.829 30v-6.388l-5.85-13.442h4.801l3.371 9.164 3.372-9.164h4.801l-5.821 13.442V30h-4.674ZM111.056 30v-3.329c.283-.207.661-.49 1.133-.85a70.178 70.178 0 0 0 1.586-1.246 58.8 58.8 0 0 0 1.799-1.544 30.599 30.599 0 0 0 1.799-1.714c.586-.604 1.11-1.199 1.572-1.784a9.833 9.833 0 0 0 1.105-1.743c.274-.566.411-1.095.411-1.586 0-.472-.057-.878-.17-1.218a1.976 1.976 0 0 0-.496-.822 1.908 1.908 0 0 0-.75-.481 2.791 2.791 0 0 0-.964-.156c-.566 0-1.067.17-1.501.51-.425.34-.779.76-1.062 1.26a5.65 5.65 0 0 0-.581 1.46l-4.023-1.729a5.996 5.996 0 0 1 1.431-2.69 6.892 6.892 0 0 1 2.535-1.729 8.472 8.472 0 0 1 3.216-.609c1.019 0 1.964.109 2.832.326.869.207 1.625.552 2.267 1.034.651.472 1.156 1.1 1.515 1.884.369.783.553 1.756.553 2.918 0 .717-.17 1.458-.51 2.223-.34.756-.789 1.506-1.346 2.252a22.138 22.138 0 0 1-1.785 2.11 32.844 32.844 0 0 1-1.869 1.814c-.614.538-1.157.987-1.629 1.346-.463.349-.789.585-.977.708h7.875V30h-13.966Z" fill="currentColor"/><path d="M40 20C40 8.954 31.046 0 20 0S0 8.954 0 20s8.954 20 20 20 20-8.954 20-20Z" fill="#fff"/><path d="M32.704 10.272A13.556 13.556 0 0 0 23.2 6.4C15.689 6.4 9.6 12.489 9.6 20c0 7.511 6.089 13.6 13.6 13.6 3.699 0 7.052-1.476 9.504-3.872A15.974 15.974 0 0 1 20 36c-8.837 0-16-7.163-16-16S11.163 4 20 4c5.177 0 9.78 2.459 12.704 6.272Z" fill="url(#Logo_svg__a)"/><path d="M13.037 27.782a10.845 10.845 0 0 0 7.603 3.098c6.009 0 10.88-4.871 10.88-10.88S26.649 9.12 20.64 9.12a10.845 10.845 0 0 0-7.603 3.098A12.78 12.78 0 0 1 23.2 7.2C30.27 7.2 36 12.93 36 20s-5.73 12.8-12.8 12.8a12.78 12.78 0 0 1-10.163-5.018Z" fill="url(#Logo_svg__b)"/><path fill-rule="evenodd" clip-rule="evenodd" d="M29.6 20a9.6 9.6 0 1 1-19.2 0 9.6 9.6 0 0 1 19.2 0Zm-3.2 0a6.4 6.4 0 1 1-12.8 0 6.4 6.4 0 0 1 12.8 0Z" fill="url(#Logo_svg__c)"/><defs><linearGradient id="Logo_svg__a" x1="4" y1="19.448" x2="36" y2="19.448" gradientUnits="userSpaceOnUse"><stop stop-color="#00E0FF"/><stop offset="1" stop-color="#562EC8"/></linearGradient><linearGradient id="Logo_svg__b" x1="4" y1="19.448" x2="36" y2="19.448" gradientUnits="userSpaceOnUse"><stop stop-color="#00E0FF"/><stop offset="1" stop-color="#562EC8"/></linearGradient><linearGradient id="Logo_svg__c" x1="4" y1="19.448" x2="36" y2="19.448" gradientUnits="userSpaceOnUse"><stop stop-color="#00E0FF"/><stop offset="1" stop-color="#562EC8"/></linearGradient></defs></svg>