<svg viewBox="0 0 24 24" fill="none" width="24" height="24" xlmns="http://www.w3.org/2000/svg" class="sc-gEvEer tTyui sc-cWSHoV yozIb sc-cWSHoV yozIb"><path d="M20 12C20 16.418 16.418 20 12 20C7.58197 20 4 16.418 4 12C4 7.58197 7.58197 4 12 4C16.419 4 20 7.58197 20 12Z" fill="#2081E2"/><path d="M8.01227 11.905L8.04932 11.8579L10.2834 9.02864C10.3161 8.98722 10.3929 8.9915 10.4176 9.03649C10.7908 9.71362 11.1129 10.5557 10.962 11.08C10.8976 11.2957 10.7211 11.5879 10.5226 11.8579C10.497 11.8971 10.4687 11.9357 10.4387 11.9729C10.4246 11.99 10.4008 12 10.3752 12H8.07756C8.01579 12 7.97962 11.9457 8.01227 11.905Z" fill="white"/><path d="M17 12.7525V13.275C17 13.305 16.9817 13.3317 16.955 13.3433C16.7917 13.4133 16.2325 13.67 16 13.9933C15.4067 14.8192 14.9533 16 13.94 16H9.71249C8.21417 16 7 14.7817 7 13.2783V13.23C7 13.19 7.03249 13.1575 7.0725 13.1575H9.42917C9.47583 13.1575 9.50999 13.2008 9.50584 13.2467C9.48916 13.4 9.5175 13.5567 9.59 13.6992C9.73 13.9833 10.02 14.1608 10.3333 14.1608H11.5V13.25H10.3467C10.2875 13.25 10.2525 13.1817 10.2867 13.1333C10.2992 13.1142 10.3133 13.0942 10.3283 13.0717C10.4375 12.9167 10.5933 12.6758 10.7483 12.4017C10.8542 12.2167 10.9567 12.0192 11.0392 11.8208C11.0558 11.785 11.0692 11.7483 11.0825 11.7125C11.105 11.6492 11.1283 11.59 11.145 11.5308C11.1617 11.4808 11.175 11.4283 11.1883 11.3792C11.2275 11.2108 11.2442 11.0325 11.2442 10.8475C11.2442 10.775 11.2408 10.6992 11.2342 10.6267C11.2308 10.5475 11.2208 10.4683 11.2108 10.3892C11.2042 10.3192 11.1917 10.25 11.1783 10.1775C11.1617 10.0717 11.1383 9.96667 11.1117 9.86083L11.1025 9.82084C11.0825 9.74833 11.0658 9.67917 11.0425 9.60667C10.9767 9.37916 10.9008 9.1575 10.8208 8.95001C10.7917 8.8675 10.7583 8.78834 10.725 8.70917C10.6758 8.59001 10.6258 8.48167 10.58 8.37917C10.5567 8.3325 10.5367 8.28999 10.5167 8.24667C10.4942 8.1975 10.4708 8.14833 10.4475 8.10167C10.4308 8.06584 10.4117 8.0325 10.3983 7.99917L10.2558 7.73583C10.2358 7.7 10.2692 7.6575 10.3083 7.66833L11.2 7.90999H11.2025C11.2042 7.90999 11.205 7.91084 11.2058 7.91084L11.3233 7.94333L11.4525 7.98001L11.5 7.99333V7.46333C11.5 7.2075 11.705 7 11.9583 7C12.085 7 12.2 7.05167 12.2825 7.13583C12.365 7.22 12.4167 7.335 12.4167 7.46333V8.25001L12.5117 8.27666C12.5192 8.27917 12.5267 8.2825 12.5333 8.2875C12.5567 8.305 12.59 8.33083 12.6325 8.36251C12.6658 8.38916 12.7017 8.42167 12.745 8.45501C12.8308 8.52416 12.9333 8.61333 13.0458 8.71584C13.0758 8.74167 13.105 8.76833 13.1317 8.795C13.2767 8.93 13.4392 9.08833 13.5942 9.26333C13.6375 9.3125 13.68 9.3625 13.7233 9.41499C13.7667 9.46833 13.8125 9.52083 13.8525 9.57334C13.905 9.64334 13.9617 9.71583 14.0108 9.79167C14.0342 9.82751 14.0608 9.86417 14.0833 9.9C14.1467 9.99583 14.2025 10.095 14.2558 10.1942C14.2783 10.24 14.3017 10.29 14.3217 10.3392C14.3808 10.4717 14.4275 10.6067 14.4575 10.7417C14.4667 10.7708 14.4733 10.8025 14.4767 10.8308V10.8375C14.4867 10.8775 14.49 10.92 14.4933 10.9633C14.5067 11.1017 14.5 11.24 14.47 11.3792C14.4575 11.4383 14.4408 11.4942 14.4208 11.5533C14.4008 11.61 14.3808 11.6692 14.355 11.725C14.305 11.8408 14.2458 11.9567 14.1758 12.065C14.1533 12.105 14.1267 12.1475 14.1 12.1875C14.0708 12.23 14.0408 12.27 14.0142 12.3092C13.9775 12.3592 13.9383 12.4117 13.8983 12.4583C13.8625 12.5075 13.8258 12.5567 13.7858 12.6C13.73 12.6658 13.6767 12.7283 13.6208 12.7883C13.5875 12.8275 13.5517 12.8675 13.515 12.9033C13.4792 12.9433 13.4425 12.9792 13.4092 13.0125C13.3533 13.0683 13.3067 13.1117 13.2675 13.1475L13.1758 13.2317C13.1625 13.2433 13.145 13.25 13.1267 13.25H12.4167V14.1608H13.31C13.51 14.1608 13.7 14.09 13.8533 13.96C13.9058 13.9142 14.135 13.7158 14.4058 13.4167C14.415 13.4067 14.4267 13.3992 14.44 13.3958L16.9075 12.6825C16.9533 12.6692 17 12.7042 17 12.7525Z" fill="white"/></svg>