<svg viewBox="0 0 25 24" fill="none" width="24" height="24" xlmns="http://www.w3.org/2000/svg" class="sc-gEvEer tTyui"><path fill-rule="evenodd" clip-rule="evenodd" d="M10.5303 7.53032C10.2374 7.82321 9.76256 7.82321 9.46967 7.53032C9.17678 7.23743 9.17678 6.76255 9.46967 6.46966L12.4697 3.46966L13 2.93933L13.5303 3.46966L16.5303 6.46966C16.8232 6.76255 16.8232 7.23743 16.5303 7.53032C16.2374 7.82321 15.7626 7.82321 15.4697 7.53032L13.75 5.81065V15C13.75 15.4142 13.4142 15.75 13 15.75C12.5858 15.75 12.25 15.4142 12.25 15V5.81065L10.5303 7.53032ZM9.625 11.75C8.58947 11.75 7.75 12.5895 7.75 13.625V16C7.75 17.2426 8.75736 18.25 10 18.25H16C17.2426 18.25 18.25 17.2426 18.25 16V13.625C18.25 12.5895 17.4105 11.75 16.375 11.75C15.9608 11.75 15.625 11.4142 15.625 11C15.625 10.5858 15.9608 10.25 16.375 10.25C18.239 10.25 19.75 11.761 19.75 13.625V16C19.75 18.0711 18.0711 19.75 16 19.75H10C7.92893 19.75 6.25 18.0711 6.25 16V13.625C6.25 11.761 7.76104 10.25 9.625 10.25C10.0392 10.25 10.375 10.5858 10.375 11C10.375 11.4142 10.0392 11.75 9.625 11.75Z" fill="currentColor"></path></svg>