<svg viewBox="0 0 32 32" fill="none" width="24" height="24" xlmns="http://www.w3.org/2000/svg" class="sc-gEvEer gBkSpS"><path fill-rule="evenodd" clip-rule="evenodd" d="M16 3C13.2386 3 11 5.23858 11 8H9C6.79086 8 5 9.79086 5 12V23C5 25.2091 6.79086 27 9 27H23C25.2091 27 27 25.2091 27 23V12C27 9.79086 25.2091 8 23 8H21C21 5.23858 18.7614 3 16 3ZM19 8C19 6.34315 17.6569 5 16 5C14.3431 5 13 6.34315 13 8H19ZM11 10H9C7.89543 10 7 10.8954 7 12V23C7 24.1046 7.89543 25 9 25H23C24.1046 25 25 24.1046 25 23V12C25 10.8954 24.1046 10 23 10H21H11ZM13 12C13 13.6569 14.3431 15 16 15C17.6569 15 19 13.6569 19 12H21C21 14.7614 18.7614 17 16 17C13.2386 17 11 14.7614 11 12H13Z" fill="currentColor"/></svg>