<svg width="24" height="24" fill="none" class="sc-gEvEer jQoNnK" viewBox="0 0 24 24"><path fill="currentColor" d="M18.93 5.326a15.929 15.929 0 0 0-4.07-1.325.06.06 0 0 0-.066.033c-.175.328-.37.756-.506 1.092a14.515 14.515 0 0 0-4.573 0A11.295 11.295 0 0 0 9.2 4.034.063.063 0 0 0 9.135 4c-1.428.258-2.795.71-4.07 1.325a.06.06 0 0 0-.028.024c-2.593 4.066-3.303 8.032-2.954 11.948.001.02.011.038.026.05a16.296 16.296 0 0 0 4.994 2.65.063.063 0 0 0 .07-.025c.385-.551.728-1.133 1.022-1.744a.068.068 0 0 0-.035-.093 10.7 10.7 0 0 1-1.56-.78.07.07 0 0 1-.007-.112c.105-.082.21-.168.31-.255a.06.06 0 0 1 .065-.009c3.273 1.569 6.817 1.569 10.051 0a.06.06 0 0 1 .066.008c.1.087.204.174.31.256.036.029.034.088-.005.112-.499.305-1.017.564-1.561.78a.068.068 0 0 0-.034.093c.3.61.643 1.192 1.02 1.743a.062.062 0 0 0 .07.025 16.242 16.242 0 0 0 5.003-2.65.069.069 0 0 0 .026-.048c.417-4.528-.699-8.461-2.957-11.948a.052.052 0 0 0-.026-.025ZM8.684 14.914c-.985 0-1.797-.95-1.797-2.116 0-1.166.796-2.116 1.797-2.116 1.01 0 1.813.958 1.798 2.116 0 1.166-.796 2.116-1.798 2.116Zm6.646 0c-.985 0-1.797-.95-1.797-2.116 0-1.166.796-2.116 1.797-2.116 1.009 0 1.813.958 1.797 2.116 0 1.166-.788 2.116-1.797 2.116Z"/></svg>