<svg viewBox="0 0 24 24" fill="none" width="24" height="24" xlmns="http://www.w3.org/2000/svg" class="sc-gEvEer bxqACV"><path fill-rule="evenodd" clip-rule="evenodd" d="M13.1902 6.9457C12.8354 7.08738 12.8354 7.31406 13.1902 7.44156L15.1136 8.2066C15.4683 8.34828 15.8639 8.75913 15.9867 9.11332L16.7233 11.1109C16.8597 11.4793 17.078 11.4793 17.2008 11.1109L17.9375 9.11332C18.0739 8.74497 18.4695 8.33411 18.8105 8.2066L20.734 7.44156C21.0887 7.29989 21.0887 7.07321 20.734 6.9457L18.8105 6.18063C18.4558 6.03896 18.0602 5.6281 17.9375 5.27391L17.2008 3.27627C17.0644 2.90791 16.8461 2.90791 16.7233 3.27627L15.9867 5.27391C15.8503 5.64227 15.4547 6.05312 15.1136 6.18063L13.1902 6.9457ZM3.8185 13.4061C2.72717 13.6895 2.72717 14.157 3.8185 14.4404L6.23308 15.0637C7.32442 15.3471 8.44302 16.5089 8.71585 17.6423L9.31609 20.1499C9.58892 21.2834 10.0391 21.2834 10.3119 20.1499L10.9122 17.6423C11.185 16.5089 12.3036 15.3471 13.395 15.0637L15.8095 14.4404C16.9009 14.157 16.9009 13.6895 15.8095 13.4061L13.395 12.7828C12.3036 12.4994 11.185 11.3377 10.9122 10.2042L10.3119 7.69658C10.0391 6.56318 9.58892 6.56318 9.31609 7.69658L8.71585 10.2042C8.44302 11.3377 7.32442 12.4994 6.23308 12.7828L3.8185 13.4061Z" fill="currentColor"></path></svg>